<?xml version="1.0" encoding="utf-8"?>
<!-- Generator: Adobe Illustrator 24.3.0, SVG Export Plug-In . SVG Version: 6.00 Build 0)  -->
<svg version="1.1" id="Layer_1" xmlns="http://www.w3.org/2000/svg" xmlns:xlink="http://www.w3.org/1999/xlink" x="0px" y="0px"
	 viewBox="0 0 200 45" style="enable-background:new 0 0 200 45;" xml:space="preserve">
<style type="text/css">
	.st0{fill:#00ADEE;}
	.st1{fill:url(#SVGID_1_);}
	.st2{fill:url(#SVGID_2_);stroke:#FFFFFF;stroke-width:4.349451e-02;stroke-miterlimit:10;}
	.st3{fill:url(#SVGID_3_);stroke:#FFFFFF;stroke-width:4.349451e-02;stroke-miterlimit:10;}
	.st4{fill:url(#SVGID_4_);stroke:#FFFFFF;stroke-width:4.349451e-02;stroke-miterlimit:10;}
	.st5{fill:url(#SVGID_5_);stroke:#FFFFFF;stroke-width:4.349451e-02;stroke-miterlimit:10;}
	.st6{fill:url(#SVGID_6_);stroke:#FFFFFF;stroke-width:4.349451e-02;stroke-miterlimit:10;}
	.st7{fill:#FFFFFF;}
</style>
<g>
	<g>
		<g>
			<path class="st0" d="M44.4,0.4v28.5c-0.1,2.6-1.4,10.8-13.2,12H11.1v-9.4h20.1c4.2,0,3.7-3.4,3.7-3.4V0.4H13.2
				c-3.7,0-6.8,1.2-9.4,3.7C1.3,6.5,0,9.6,0,13.2v31.3h47.2V0.4H44.4z"/>
		</g>
		<g>
			<linearGradient id="SVGID_1_" gradientUnits="userSpaceOnUse" x1="9.1216" y1="1.7598" x2="40.7844" y2="46.9789">
				<stop  offset="0" style="stop-color:#6DCEF5"/>
				<stop  offset="3.098943e-02" style="stop-color:#65CCF4"/>
				<stop  offset="0.253" style="stop-color:#2FBBF1"/>
				<stop  offset="0.419" style="stop-color:#0DB1EF"/>
				<stop  offset="0.5091" style="stop-color:#00ADEE"/>
			</linearGradient>
			<path class="st1" d="M45.3,1.6l0.1,26.7c-0.1,5.6-3.2,12.5-14.5,13.6L10,41.8l0.1-11.9L31,30.1c3.1-0.2,3-2.3,3-2.3V1.6H13.6
				c-3.5,0-6.5,1.1-9,3.4c-2.5,2.3-3.7,5.2-3.7,8.6v29.5h45.3V1.6H45.3z"/>
		</g>
	</g>
	<g>
		<linearGradient id="SVGID_2_" gradientUnits="userSpaceOnUse" x1="58.3469" y1="-2.0929" x2="76.5565" y2="23.9133">
			<stop  offset="0" style="stop-color:#808184"/>
			<stop  offset="5.108046e-02" style="stop-color:#969799"/>
			<stop  offset="0.1405" style="stop-color:#B6B7B9"/>
			<stop  offset="0.2375" style="stop-color:#D1D1D2"/>
			<stop  offset="0.3433" style="stop-color:#E5E6E6"/>
			<stop  offset="0.4623" style="stop-color:#F4F4F4"/>
			<stop  offset="0.6051" style="stop-color:#FCFCFD"/>
			<stop  offset="0.8364" style="stop-color:#FFFFFF"/>
		</linearGradient>
		<path class="st2" d="M85.9,7.2H61.6v4.4h22.8v6.8H61.6v11.2h-6.8V0.4h31.2V7.2z"/>
		<linearGradient id="SVGID_3_" gradientUnits="userSpaceOnUse" x1="83.4512" y1="3.6295" x2="99.4066" y2="26.4163">
			<stop  offset="0" style="stop-color:#808184"/>
			<stop  offset="5.108046e-02" style="stop-color:#969799"/>
			<stop  offset="0.1405" style="stop-color:#B6B7B9"/>
			<stop  offset="0.2375" style="stop-color:#D1D1D2"/>
			<stop  offset="0.3433" style="stop-color:#E5E6E6"/>
			<stop  offset="0.4623" style="stop-color:#F4F4F4"/>
			<stop  offset="0.6051" style="stop-color:#FCFCFD"/>
			<stop  offset="0.8364" style="stop-color:#FFFFFF"/>
		</linearGradient>
		<path class="st3" d="M94.8,29.6H88V0.4h6.8V29.6z"/>
		<linearGradient id="SVGID_4_" gradientUnits="userSpaceOnUse" x1="95.3728" y1="2.0403" x2="118.7076" y2="35.3657">
			<stop  offset="0" style="stop-color:#808184"/>
			<stop  offset="5.108046e-02" style="stop-color:#969799"/>
			<stop  offset="0.1405" style="stop-color:#B6B7B9"/>
			<stop  offset="0.2375" style="stop-color:#D1D1D2"/>
			<stop  offset="0.3433" style="stop-color:#E5E6E6"/>
			<stop  offset="0.4623" style="stop-color:#F4F4F4"/>
			<stop  offset="0.6051" style="stop-color:#FCFCFD"/>
			<stop  offset="0.8364" style="stop-color:#FFFFFF"/>
		</linearGradient>
		<path class="st4" d="M126.9,29.6H97.7V0.4h6.8v22.4h22.4V29.6z"/>
		<linearGradient id="SVGID_5_" gradientUnits="userSpaceOnUse" x1="133.3595" y1="-2.0926" x2="157.3283" y2="32.1384">
			<stop  offset="0" style="stop-color:#808184"/>
			<stop  offset="5.108046e-02" style="stop-color:#969799"/>
			<stop  offset="0.1405" style="stop-color:#B6B7B9"/>
			<stop  offset="0.2375" style="stop-color:#D1D1D2"/>
			<stop  offset="0.3433" style="stop-color:#E5E6E6"/>
			<stop  offset="0.4623" style="stop-color:#F4F4F4"/>
			<stop  offset="0.6051" style="stop-color:#FCFCFD"/>
			<stop  offset="0.8364" style="stop-color:#FFFFFF"/>
		</linearGradient>
		<path class="st5" d="M160.9,29.6h-6.8V18.4h-17.5v11.2h-6.8V0.4h6.8v11.2h17.5V0.4h6.8V29.6z"/>
		<linearGradient id="SVGID_6_" gradientUnits="userSpaceOnUse" x1="171.1586" y1="-0.2969" x2="192.6121" y2="30.3419">
			<stop  offset="0" style="stop-color:#808184"/>
			<stop  offset="5.108046e-02" style="stop-color:#969799"/>
			<stop  offset="0.1405" style="stop-color:#B6B7B9"/>
			<stop  offset="0.2375" style="stop-color:#D1D1D2"/>
			<stop  offset="0.3433" style="stop-color:#E5E6E6"/>
			<stop  offset="0.4623" style="stop-color:#F4F4F4"/>
			<stop  offset="0.6051" style="stop-color:#FCFCFD"/>
			<stop  offset="0.8364" style="stop-color:#FFFFFF"/>
		</linearGradient>
		<path class="st6" d="M200,20.4c0,2.6-0.9,4.8-2.8,6.6c-1.9,1.8-4.1,2.6-6.8,2.6h-17.2c-2.6,0-4.9-0.9-6.8-2.6
			c-1.9-1.8-2.8-4-2.8-6.6V9.7c0-2.6,0.9-4.8,2.8-6.6c1.9-1.8,4.1-2.6,6.8-2.6h17.2c2.6,0,4.9,0.9,6.8,2.6c1.9,1.8,2.8,4,2.8,6.6
			V20.4z M193.2,20.4V9.7c0-1.6-0.9-2.4-2.7-2.4h-17.2c-1.8,0-2.7,0.8-2.7,2.4v10.7c0,1.6,0.9,2.4,2.7,2.4h17.2
			C192.3,22.8,193.2,22,193.2,20.4z"/>
	</g>
	<g>
		<path class="st7" d="M60.9,40.1h-4.8V41h4.5v1.4h-4.5v0.9h4.8v1.4h-6.2v-5.8h6.2V40.1z"/>
		<path class="st7" d="M76.6,44.6h-1.4l-3.5-3.9v3.9h-1.4v-5.8h1.4l3.5,3.9v-3.9h1.4V44.6z"/>
		<path class="st7" d="M92.4,44.6h-4.5c-0.5,0-1-0.2-1.3-0.5c-0.4-0.3-0.6-0.8-0.6-1.3v-2.1c0-0.5,0.2-1,0.6-1.3
			c0.4-0.3,0.8-0.5,1.3-0.5h4.5v1.4h-4.5c-0.4,0-0.5,0.2-0.5,0.5v2.1c0,0.3,0.2,0.5,0.5,0.5h3.1v-0.9h-1.8V41h3.2V44.6z"/>
		<path class="st7" d="M108.1,40.1h-4.8V41h4.5v1.4h-4.5v0.9h4.8v1.4h-6.2v-5.8h6.2V40.1z"/>
		<path class="st7" d="M123.7,44.6h-1.4l-3.5-3.9v3.9h-1.4v-5.8h1.4l3.5,3.9v-3.9h1.4V44.6z"/>
		<path class="st7" d="M139.3,44.6H138v-2.2h-3.5v2.2h-1.4v-5.8h1.4V41h3.5v-2.2h1.4V44.6z"/>
		<path class="st7" d="M155.9,44.6h-1.4v-1.8H151v-1.4h3.6v-0.8c0-0.3-0.1-0.4-0.3-0.4h-3.8c-0.2,0-0.3,0.1-0.3,0.4v4h-1.4v-4
			c0-0.5,0.2-0.9,0.5-1.3c0.3-0.4,0.7-0.5,1.2-0.5h3.8c0.5,0,0.9,0.2,1.2,0.5c0.3,0.4,0.5,0.8,0.5,1.3V44.6z"/>
		<path class="st7" d="M172.2,44.6h-1.9l-2.9-3.3h3.5c0.3,0,0.4-0.2,0.4-0.6c0-0.4-0.1-0.6-0.4-0.6h-4.2v4.4h-1.4v-5.8h5.6
			c0.5,0,0.9,0.2,1.2,0.6c0.3,0.4,0.4,0.8,0.4,1.3c0,0.5-0.1,1-0.4,1.3c-0.3,0.4-0.7,0.6-1.2,0.6h-0.5L172.2,44.6z"/>
		<path class="st7" d="M183.4,44.6h-1.4v-5.8h1.4V44.6z"/>
		<path class="st7" d="M200,44.6h-1.4v-1.8h-3.6v-1.4h3.6v-0.8c0-0.3-0.1-0.4-0.3-0.4h-3.8c-0.2,0-0.3,0.1-0.3,0.4v4h-1.4v-4
			c0-0.5,0.2-0.9,0.5-1.3c0.3-0.4,0.7-0.5,1.2-0.5h3.8c0.5,0,0.9,0.2,1.2,0.5c0.3,0.4,0.5,0.8,0.5,1.3V44.6z"/>
	</g>
</g>
</svg>
